<svg width="117" height="57" viewBox="0 0 117 57" fill="none" xmlns="http://www.w3.org/2000/svg" aria-hidden="true">
  <path d="M26.6596 21.7731H25.5803C25.2418 21.7731 24.967 22.0479 24.967 22.3864V30.4765C24.967 30.4765 24.967 30.5206 24.967 30.5403C24.8787 30.4078 24.8002 30.2901 24.7266 30.1821L19.2907 22.043C19.1779 21.8713 18.9865 21.7682 18.7805 21.7682H17.5736C17.2351 21.7682 16.9603 22.043 16.9603 22.3815V34.2247C16.9603 34.5632 17.2351 34.838 17.5736 34.838H18.648C18.9865 34.838 19.2613 34.5632 19.2613 34.2247V26.6596C19.2613 26.4928 19.2613 26.3063 19.2613 26.0905C19.4968 26.4584 19.6979 26.7675 19.8647 27.0079L24.9376 34.5682C25.0504 34.7399 25.2418 34.8429 25.4478 34.8429H26.6743C27.0129 34.8429 27.2876 34.5682 27.2876 34.2296V22.3864C27.2876 22.0479 27.0129 21.7731 26.6743 21.7731H26.6596Z" fill="#534741"/>
  <path d="M36.5012 22.1754C36.4129 21.935 36.1823 21.7731 35.9223 21.7731H34.6761C34.421 21.7731 34.1904 21.935 34.0972 22.1754L29.7112 34.0187C29.6425 34.2051 29.667 34.4161 29.7848 34.5829C29.9025 34.7497 30.0889 34.8478 30.2901 34.8478H31.4185C31.6785 34.8478 31.9091 34.6859 31.9974 34.4455L33.1307 31.3351H37.448L38.5666 34.4406C38.6549 34.6859 38.8855 34.8478 39.1455 34.8478H40.2887C40.4898 34.8478 40.6762 34.7497 40.794 34.5829C40.9068 34.4161 40.9363 34.2051 40.8676 34.0187L36.5061 22.1754H36.5012ZM33.9255 29.1371L34.838 26.6301C34.9852 26.2278 35.1373 25.7961 35.2992 25.3251C35.4562 25.7912 35.6083 26.2278 35.7554 26.6252L36.6533 29.1322H33.9255V29.1371Z" fill="#534741"/>
  <path d="M87.7058 0C78.2959 0 69.519 4.66567 64.2302 12.481C61.2768 16.8425 59.5155 21.0323 58.0093 25.1043C56.567 21.1844 54.8695 17.1369 52.0485 12.8784C46.7107 4.81285 37.8356 0 28.3129 0C12.7018 0 0 12.7018 0 28.3129C0 43.924 12.7018 56.6258 28.3129 56.6258C37.7914 56.6258 46.5684 51.9602 51.7934 44.1399C54.7419 39.7293 56.4983 35.5248 58.0044 31.4479C59.4517 35.3826 61.1443 39.4497 63.9702 43.7474C69.2737 51.813 78.1487 56.6258 87.7107 56.6258C103.322 56.6258 116.024 43.924 116.024 28.3129C116.024 12.7018 103.317 0 87.7058 0ZM50.0026 42.9428C45.18 50.1645 37.0702 54.4721 28.3129 54.4721C13.8891 54.4721 2.15376 42.7368 2.15376 28.3129C2.15376 13.8891 13.8891 2.15376 28.3129 2.15376C37.1144 2.15376 45.3124 6.60847 50.2528 14.0657C53.5252 19.0061 55.1736 23.5197 56.8613 28.2737C55.1736 32.9884 53.3927 37.865 49.9977 42.9428H50.0026ZM87.7058 54.4721C78.8699 54.4721 70.667 50.0223 65.7658 42.565C62.4935 37.5854 60.7764 32.851 59.1475 28.2737C60.9039 23.3676 62.6112 18.7117 66.016 13.6879C70.9025 6.4662 79.0122 2.15376 87.7107 2.15376C102.135 2.15376 113.87 13.8891 113.87 28.3129C113.87 42.7368 102.135 54.4721 87.7107 54.4721H87.7058Z" fill="#534741"/>
  <path d="M76.7554 26.5418H85.6256C85.9641 26.5418 86.2389 26.2671 86.2389 25.9286V24.9572C86.2389 24.6186 85.9641 24.3439 85.6256 24.3439H79.2624C79.439 24.1182 79.6157 23.8876 79.7923 23.662L86.0573 15.405C86.1407 15.2971 86.18 15.1696 86.18 15.0322V14.0853C86.18 13.7468 85.9052 13.4721 85.5667 13.4721H77.04C76.7015 13.4721 76.4267 13.7468 76.4267 14.0853V15.0567C76.4267 15.3952 76.7015 15.67 77.04 15.67H83.0597C82.9125 15.8613 82.7654 16.0576 82.6182 16.2489L76.2746 24.6088C76.1912 24.7168 76.152 24.8443 76.152 24.9817V25.9286C76.152 26.2671 76.4267 26.5418 76.7652 26.5418H76.7554Z" fill="#534741"/>
  <path d="M98.0428 13.4721H90.5218C90.1833 13.4721 89.9086 13.7468 89.9086 14.0853V25.9286C89.9086 26.2671 90.1833 26.5418 90.5218 26.5418H98.0428C98.3813 26.5418 98.6561 26.2671 98.6561 25.9286V24.9572C98.6561 24.6186 98.3813 24.3439 98.0428 24.3439H92.2095V20.9734H97.5326C97.8711 20.9734 98.1459 20.6987 98.1459 20.3602V19.3888C98.1459 19.0503 97.8711 18.7755 97.5326 18.7755H92.2095V15.6749H98.0428C98.3813 15.6749 98.6561 15.4001 98.6561 15.0616V14.0902C98.6561 13.7517 98.3813 13.477 98.0428 13.477V13.4721Z" fill="#534741"/>
  <path d="M88.113 30.0791H86.6412C86.391 30.0791 86.1653 30.2312 86.0721 30.4618L82.736 38.704C82.6526 38.91 82.5544 39.1504 82.4465 39.4252C82.3386 39.1504 82.2405 38.91 82.1571 38.6991L78.7866 30.4569C78.6934 30.2263 78.4677 30.0742 78.2175 30.0742H76.7555C76.417 30.0742 76.1422 30.3489 76.1422 30.6875V42.5307C76.1422 42.8692 76.417 43.144 76.7555 43.144H77.8201C78.1586 43.144 78.4333 42.8692 78.4333 42.5307V35.5935L81.4064 42.7662C81.4996 42.9968 81.7253 43.144 81.9755 43.144H82.8832C83.1334 43.144 83.3541 42.9919 83.4523 42.7662L86.4401 35.5396V42.5307C86.4401 42.8692 86.7148 43.144 87.0533 43.144H88.1081C88.4466 43.144 88.7214 42.8692 88.7214 42.5307V30.6875C88.7214 30.3489 88.4466 30.0742 88.1081 30.0742L88.113 30.0791Z" fill="#534741"/>
  <path d="M98.0429 30.0791H93.0093C92.6707 30.0791 92.396 30.3538 92.396 30.6924V31.6638C92.396 32.0023 92.6707 32.277 93.0093 32.277H94.378V40.9509H93.0093C92.6707 40.9509 92.396 41.2257 92.396 41.5642V42.5356C92.396 42.8741 92.6707 43.1489 93.0093 43.1489H98.0429C98.3814 43.1489 98.6561 42.8741 98.6561 42.5356V41.5642C98.6561 41.2257 98.3814 40.9509 98.0429 40.9509H96.679V32.277H98.0429C98.3814 32.277 98.6561 32.0023 98.6561 31.6638V30.6924C98.6561 30.3538 98.3814 30.0791 98.0429 30.0791Z" fill="#534741"/>
</svg>
