<?xml version="1.0" encoding="UTF-8"?>
<svg xmlns="http://www.w3.org/2000/svg" width="480" height="320" viewBox="0 0 480 320" fill="none">
  <rect width="480" height="320" fill="#F1F2F4"/>
  <g transform="translate(180 100) scale(5)" fill="none" stroke="#333538" stroke-width="1.5" stroke-linecap="round" stroke-linejoin="round">
    <path stroke="none" d="M0 0h24v24H0z" fill="none" />
  <path d="M5 7a4 4 0 1 0 8 0a4 4 0 1 0 -8 0" />
  <path d="M3 21v-2a4 4 0 0 1 4 -4h4a4 4 0 0 1 4 4v2" />
  <path d="M16 3.13a4 4 0 0 1 0 7.75" />
  <path d="M21 21v-2a4 4 0 0 0 -3 -3.85" />
  </g>
</svg>
