<?xml version="1.0" encoding="UTF-8"?>
<svg xmlns="http://www.w3.org/2000/svg" width="480" height="320" viewBox="0 0 480 320" fill="none">
  <rect width="480" height="320" fill="#F1F2F4"/>
  <g transform="translate(180 100) scale(5)" fill="none" stroke="#333538" stroke-width="1.5" stroke-linecap="round" stroke-linejoin="round">
    <path stroke="none" d="M0 0h24v24H0z" fill="none" />
  <path d="M20 20h.01" />
  <path d="M4 20h.01" />
  <path d="M8 20h.01" />
  <path d="M12 20h.01" />
  <path d="M16 20h.01" />
  <path d="M20 4h.01" />
  <path d="M4 4h.01" />
  <path d="M8 4h.01" />
  <path d="M12 4h.01" />
  <path d="M16 4l0 .01" />
  <path d="M4 9a1 1 0 0 1 1 -1h14a1 1 0 0 1 1 1v6a1 1 0 0 1 -1 1h-14a1 1 0 0 1 -1 -1l0 -6" />
  </g>
</svg>
